<?xml version="1.0" standalone="no"?>
<!DOCTYPE svg PUBLIC "-//W3C//DTD SVG 20010904//EN"
 "http://www.w3.org/TR/2001/REC-SVG-20010904/DTD/svg10.dtd">
<svg version="1.0" xmlns="http://www.w3.org/2000/svg"
 width="384.000000pt" height="384.000000pt" viewBox="0 0 384.000000 384.000000"
 preserveAspectRatio="xMidYMid meet">
<metadata>
Created by potrace 1.11, written by Peter Selinger 2001-2013
</metadata>
<g transform="translate(0.000000,384.000000) scale(0.100000,-0.100000)"
fill="#000000" stroke="none">
<path d="M1827 3403 c-59 -20 -128 -79 -151 -130 l-17 -39 -102 1 c-126 2
-147 -3 -172 -41 -19 -28 -20 -46 -20 -236 1 -221 5 -246 52 -267 16 -8 176
-11 512 -11 l488 0 27 26 c14 15 27 32 27 38 1 6 2 100 3 210 1 220 -4 249
-53 269 -18 8 -71 13 -132 12 l-101 -1 -33 52 c-74 115 -199 160 -328 117z"/>
<path d="M923 3035 c-43 -18 -66 -41 -92 -90 l-21 -40 0 -1149 0 -1150 21 -44
c13 -26 38 -54 62 -70 l41 -27 965 -3 c640 -2 978 1 1001 7 20 6 50 23 68 39
66 59 62 -16 62 1247 0 1231 2 1178 -50 1238 -38 43 -88 57 -210 57 l-110 0
-1 -152 c0 -84 -3 -166 -5 -182 -13 -75 -86 -164 -164 -200 -43 -19 -63 -20
-570 -20 -507 0 -527 1 -570 20 -56 26 -112 79 -142 136 -20 39 -23 59 -26
221 l-4 177 -111 0 c-73 -1 -123 -6 -144 -15z m968 -751 c28 -25 35 -79 14
-111 -23 -34 -389 -400 -413 -411 -9 -5 -23 -7 -29 -6 -7 1 -20 2 -30 3 -9 0
-67 51 -129 113 -126 124 -141 152 -108 207 17 29 54 49 82 45 6 -1 17 -2 23
-3 6 0 44 -33 84 -72 l73 -71 160 160 c87 88 165 162 173 165 23 10 80 -1 100
-19z m722 -173 c50 -27 61 -93 23 -138 l-24 -28 -213 -3 c-257 -4 -270 0 -293
83 -7 25 27 83 54 93 37 14 425 8 453 -7z m-730 -561 c35 -28 45 -81 22 -117
-35 -53 -403 -410 -428 -415 -43 -8 -78 16 -189 129 -123 125 -131 147 -80
205 24 26 36 31 67 30 34 -1 48 -11 111 -73 l72 -71 154 154 c85 85 163 160
174 166 30 18 69 14 97 -8z m709 -169 c9 0 29 -13 43 -28 35 -39 34 -86 -4
-124 l-29 -29 -212 0 c-232 0 -263 7 -278 60 -10 38 -9 43 5 72 24 49 45 53
260 52 109 -1 206 -2 215 -3z"/>
</g>
</svg>
