<svg width="304" height="304" viewBox="0 0 304 304" fill="none" xmlns="http://www.w3.org/2000/svg">
<circle cx="153.5" cy="150.5" r="141.5" fill="#4298E3"/>
<path d="M152 50.6665C138.028 50.6665 126.666 62.0279 126.666 76C126.666 89.9721 138.028 101.334 152 101.334C165.972 101.334 177.334 89.9721 177.334 76C177.334 62.0279 165.972 50.6665 152 50.6665ZM152 88.6665C145.017 88.6665 139.334 82.9825 139.334 76C139.334 69.0175 145.017 63.3335 152 63.3335C158.982 63.3335 164.666 69.0175 164.666 76C164.666 82.9825 158.982 88.6665 152 88.6665Z" fill="white"/>
<path d="M171 114H120.334C116.833 114 114 116.833 114 120.334V145.667C114 149.168 116.833 152.001 120.334 152.001H126.667V247.001C126.667 250.501 129.5 253.334 133.001 253.334H171.001C174.501 253.334 177.334 250.501 177.334 247.001V120.334C177.334 116.833 174.501 114 171 114ZM164.666 240.666H139.333V145.666C139.333 142.166 136.5 139.333 132.999 139.333H126.666V126.666H164.666V240.666H164.666Z" fill="white"/>
<path d="M152 0C68.1886 0 0 68.1886 0 152C0 235.811 68.1886 304 152 304C235.811 304 304 235.811 304 152C304 68.1886 235.811 0 152 0ZM152 291.334C75.1711 291.334 12.6665 228.829 12.6665 152C12.6665 75.1711 75.1711 12.6665 152 12.6665C228.829 12.6665 291.334 75.1711 291.334 152C291.334 228.829 228.829 291.334 152 291.334Z" fill="#4298E3"/>
</svg>
