<svg version="1.2" xmlns="http://www.w3.org/2000/svg" xmlns:xlink="http://www.w3.org/1999/xlink" overflow="visible" preserveAspectRatio="none" viewBox="0 0 54 57" height="55" width="52"><g transform="translate(1, 1)"><desc>Created with Sketch.</desc><defs><polygon points="0.06 0.752 29.454 0.752 29.454 36.927 0.06 36.927" id="path-1_1574690052815" vector-effect="non-scaling-stroke"/><polygon points="0.889 0.095 7.522 0.095 7.522 4.94 0.889 4.94" id="path-3_1574690052815" vector-effect="non-scaling-stroke"/><polygon points="0.593 0.095 31.023 0.095 31.023 4.94 0.593 4.94" id="path-5_1574690052815" vector-effect="non-scaling-stroke"/></defs><g fill-rule="evenodd" fill="none" stroke-width="1" stroke="none" id="Page-1_1574690052815"><g id="HBG_logo_staende_CMYK_1574690052815"><path fill="#FFFFFE" id="Fill-1_1574690052815" d="M39.678,12.887 L11.345,12.887 C11.336,38.609 11.345,38.609 11.345,39.833 C11.345,40.985 11.828,42.205 13.658,42.679 C15.485,43.152 22.326,44.762 23.542,45.048 C25.2,45.437 25.495,46.636 25.516,46.731 L25.516,46.741 L25.517,46.736 L25.518,46.741 L25.518,46.731 C25.539,46.636 25.832,45.437 27.489,45.048 C28.706,44.762 35.548,43.152 37.375,42.679 C39.203,42.205 39.678,40.985 39.678,39.833 C39.678,38.609 39.687,38.609 39.678,12.887" vector-effect="non-scaling-stroke"/><path fill="#D8232A" id="Fill-2_1574690052815" d="M21.734,27.542 L15.594,27.542 C14.972,27.778 13.505,28.478 13.505,29.848 C13.505,30.303 13.712,30.639 13.89,30.844 L18.352,30.844 L21.734,27.542" vector-effect="non-scaling-stroke"/><path stroke-width="0.058" stroke="#FFFFFE" id="Stroke-3_1574690052815" d="M21.734,27.542 L15.594,27.542 C14.972,27.778 13.505,28.478 13.505,29.848 C13.505,30.303 13.712,30.639 13.89,30.844 L18.352,30.844 L21.734,27.542 Z" vector-effect="non-scaling-stroke"/><polyline points="25.384 23.979 25.509 24.106 25.51 24.107 25.636 23.979 28.803 27.069 28.803 20.791 22.218 20.791 22.218 27.069 25.384 23.979" fill="#D8232A" id="Fill-4_1574690052815" vector-effect="non-scaling-stroke"/><polygon points="25.384 23.979 25.509 24.106 25.51 24.107 25.636 23.979 28.803 27.069 28.803 20.791 22.218 20.791 22.218 27.069" stroke-width="0.058" stroke="#FFFFFE" id="Stroke-5_1574690052815" vector-effect="non-scaling-stroke"/><path fill="#D8232A" id="Fill-6_1574690052815" d="M18.673,31.204 L14.136,31.204 L14.136,35.314 L14.712,35.314 L14.712,36.951 L17.239,36.951 L17.239,35.268 L19.235,35.268 L19.235,31.364 C18.995,31.346 18.807,31.276 18.673,31.204" vector-effect="non-scaling-stroke"/><path stroke-width="0.058" stroke="#FFFFFE" id="Stroke-7_1574690052815" d="M18.673,31.204 L14.136,31.204 L14.136,35.314 L14.712,35.314 L14.712,36.951 L17.239,36.951 L17.239,35.268 L19.235,35.268 L19.235,31.364 C18.995,31.346 18.807,31.276 18.673,31.204 Z" vector-effect="non-scaling-stroke"/><path fill="#D8232A" id="Fill-8_1574690052815" d="M30.6,31.154 C30.447,31.255 30.107,31.435 29.624,31.436 C29.623,31.436 29.622,31.436 29.621,31.436 C29.144,31.436 28.835,31.309 28.686,31.227 C28.528,31.301 28.198,31.419 27.711,31.419 C27.248,31.418 26.888,31.262 26.712,31.169 C26.546,31.273 26.197,31.411 25.51,31.409 C24.824,31.411 24.475,31.273 24.309,31.169 C24.133,31.262 23.772,31.418 23.31,31.419 C22.824,31.419 22.494,31.3 22.336,31.227 C22.187,31.309 21.876,31.436 21.397,31.436 C20.914,31.435 20.575,31.255 20.422,31.154 C20.269,31.21 19.946,31.314 19.595,31.353 L19.595,35.268 L21.017,35.268 L21.017,36.902 L23.573,36.902 L23.573,35.359 L27.422,35.359 L27.422,36.902 L29.978,36.902 L29.978,35.268 L31.426,35.268 L31.426,31.353 C31.074,31.313 30.753,31.21 30.6,31.154" vector-effect="non-scaling-stroke"/><path stroke-width="0.058" stroke="#FFFFFE" id="Stroke-9_1574690052815" d="M30.6,31.154 C30.447,31.255 30.107,31.435 29.624,31.436 C29.623,31.436 29.622,31.436 29.621,31.436 C29.144,31.436 28.835,31.309 28.686,31.227 C28.528,31.301 28.198,31.419 27.711,31.419 C27.248,31.418 26.888,31.262 26.712,31.169 C26.546,31.273 26.197,31.411 25.51,31.409 C24.824,31.411 24.475,31.273 24.309,31.169 C24.133,31.262 23.772,31.418 23.31,31.419 C22.824,31.419 22.494,31.3 22.336,31.227 C22.187,31.309 21.876,31.436 21.397,31.436 C20.914,31.435 20.575,31.255 20.422,31.154 C20.269,31.21 19.946,31.314 19.595,31.353 L19.595,35.268 L21.017,35.268 L21.017,36.902 L23.573,36.902 L23.573,35.359 L27.422,35.359 L27.422,36.902 L29.978,36.902 L29.978,35.268 L31.426,35.268 L31.426,31.353 C31.074,31.313 30.753,31.21 30.6,31.154 Z" vector-effect="non-scaling-stroke"/><path fill="#D8232A" id="Fill-10_1574690052815" d="M35.43,27.542 L29.287,27.542 L32.669,30.844 L37.134,30.844 C37.311,30.639 37.518,30.303 37.518,29.848 C37.518,28.478 36.052,27.778 35.43,27.542" vector-effect="non-scaling-stroke"/><path stroke-width="0.058" stroke="#FFFFFE" id="Stroke-11_1574690052815" d="M35.43,27.542 L29.287,27.542 L32.669,30.844 L37.134,30.844 C37.311,30.639 37.518,30.303 37.518,29.848 C37.518,28.478 36.052,27.778 35.43,27.542 Z" vector-effect="non-scaling-stroke"/><path fill="#D8232A" id="Fill-12_1574690052815" d="M31.786,31.364 L31.786,35.268 L33.756,35.268 L33.756,36.951 L36.281,36.951 L36.281,35.314 L36.887,35.314 L36.887,31.204 L32.349,31.204 C32.214,31.276 32.025,31.347 31.786,31.364" vector-effect="non-scaling-stroke"/><path stroke-width="0.058" stroke="#FFFFFE" id="Stroke-13_1574690052815" d="M31.786,31.364 L31.786,35.268 L33.756,35.268 L33.756,36.951 L36.281,36.951 L36.281,35.314 L36.887,35.314 L36.887,31.204 L32.349,31.204 C32.214,31.276 32.025,31.347 31.786,31.364 Z" vector-effect="non-scaling-stroke"/><path fill="#D8232A" id="Fill-14_1574690052815" d="M36.779,35.814 L36.779,37.449 L33.258,37.449 L33.258,35.768 L30.476,35.768 L30.476,37.402 L26.925,37.402 L26.925,35.859 L24.071,35.859 L24.071,37.402 L20.52,37.402 L20.52,35.768 L17.736,35.768 L17.736,37.449 L14.216,37.449 L14.216,35.814 L11.343,35.814 C11.342,38.929 11.342,39.239 11.342,39.833 C11.342,40.985 11.826,42.205 13.653,42.679 C15.481,43.152 22.322,44.762 23.539,45.048 C25.197,45.437 25.506,46.741 25.506,46.741 C25.506,46.741 25.829,45.437 27.486,45.048 C28.703,44.762 35.544,43.152 37.371,42.679 C39.199,42.205 39.683,40.985 39.683,39.833 C39.683,39.239 39.683,38.929 39.683,35.814 L36.779,35.814" vector-effect="non-scaling-stroke"/><path stroke-width="0.058" stroke="#FFFFFE" id="Stroke-15_1574690052815" d="M36.779,35.814 L36.779,37.449 L33.258,37.449 L33.258,35.768 L30.476,35.768 L30.476,37.402 L26.925,37.402 L26.925,35.859 L24.071,35.859 L24.071,37.402 L20.52,37.402 L20.52,35.768 L17.736,35.768 L17.736,37.449 L14.216,37.449 L14.216,35.814 L11.343,35.814 C11.342,38.929 11.342,39.239 11.342,39.833 C11.342,40.985 11.826,42.205 13.653,42.679 C15.481,43.152 22.322,44.762 23.539,45.048 C25.197,45.437 25.506,46.741 25.506,46.741 C25.506,46.741 25.829,45.437 27.486,45.048 C28.703,44.762 35.544,43.152 37.371,42.679 C39.199,42.205 39.683,40.985 39.683,39.833 C39.683,39.239 39.683,38.929 39.683,35.814 L36.779,35.814 Z" vector-effect="non-scaling-stroke"/><polyline points="22.882 18.454 22.882 19.35 23.506 19.351 23.506 18.383 25.111 18.383 25.111 19.35 25.91 19.35 25.91 18.383 27.516 18.383 27.516 19.35 28.139 19.35 28.139 18.454 28.454 18.454 25.512 16.176 25.511 16.176 22.569 18.454 22.882 18.454" fill="#D8232A" id="Fill-16_1574690052815" vector-effect="non-scaling-stroke"/><polygon points="22.882 18.454 22.882 19.35 23.506 19.351 23.506 18.383 25.111 18.383 25.111 19.35 25.91 19.35 25.91 18.383 27.516 18.383 27.516 19.35 28.139 19.35 28.139 18.454 28.454 18.454 25.512 16.176 25.511 16.176 22.569 18.454" stroke-width="0.058" stroke="#FFFFFE" id="Stroke-17_1574690052815" vector-effect="non-scaling-stroke"/><path fill="#D8232A" id="Fill-18_1574690052815" d="M25.512,16.05 C25.654,16.05 25.769,15.934 25.769,15.792 C25.769,15.65 25.654,15.536 25.512,15.536 C25.369,15.536 25.253,15.65 25.253,15.792 C25.253,15.934 25.369,16.05 25.512,16.05" vector-effect="non-scaling-stroke"/><path fill="#D8232A" id="Fill-19_1574690052815" d="M25.997,14.563 C25.997,14.563 25.877,14.604 25.823,14.61 C25.805,14.612 25.78,14.614 25.756,14.614 C25.746,14.614 25.736,14.613 25.727,14.613 C25.731,14.567 25.736,14.504 25.736,14.447 C25.734,14.376 25.813,14.215 25.813,14.215 L25.882,14.085 L25.739,14.121 C25.739,14.122 25.571,14.162 25.511,14.161 C25.453,14.162 25.284,14.121 25.284,14.121 L25.141,14.085 L25.209,14.215 C25.211,14.215 25.288,14.376 25.286,14.447 C25.286,14.504 25.291,14.567 25.295,14.614 C25.286,14.614 25.276,14.614 25.267,14.614 C25.243,14.614 25.218,14.612 25.199,14.61 C25.146,14.604 25.025,14.562 25.025,14.562 L24.939,14.532 L24.939,14.845 C24.939,14.928 24.955,15.096 24.955,15.097 L24.966,15.196 L25.054,15.148 C25.053,15.148 25.146,15.098 25.191,15.085 C25.216,15.079 25.255,15.07 25.29,15.062 C25.29,15.072 25.29,15.082 25.29,15.093 C25.29,15.122 25.287,15.151 25.286,15.177 C25.28,15.242 25.205,15.466 25.205,15.467 L25.171,15.563 L25.199,15.561 C25.27,15.466 25.383,15.402 25.512,15.402 C25.64,15.402 25.754,15.466 25.825,15.562 L25.852,15.564 L25.818,15.467 C25.816,15.466 25.742,15.242 25.736,15.177 C25.734,15.151 25.734,15.122 25.734,15.093 C25.734,15.082 25.734,15.072 25.734,15.062 C25.767,15.069 25.805,15.079 25.83,15.085 C25.877,15.098 25.969,15.148 25.969,15.148 L26.057,15.196 L26.067,15.097 C26.067,15.096 26.084,14.928 26.084,14.845 L26.084,14.532 L25.997,14.563" vector-effect="non-scaling-stroke"/><path fill="#D8232A" id="Fill-20_1574690052815" d="M16.914,19.424 C17.095,19.424 17.243,19.571 17.243,19.753 C17.243,19.935 17.095,20.082 16.914,20.082 C16.732,20.082 16.585,19.935 16.585,19.753 C16.585,19.571 16.732,19.424 16.914,19.424" vector-effect="non-scaling-stroke"/><polygon points="16.75 21.404 17.08 21.404 17.08 20.282 16.75 20.282" fill="#D8232A" id="Fill-21_1574690052815" vector-effect="non-scaling-stroke"/><path fill="#D8232A" id="Fill-22_1574690052815" d="M34.108,19.424 C34.291,19.424 34.438,19.571 34.438,19.753 C34.438,19.935 34.291,20.082 34.108,20.082 C33.927,20.082 33.779,19.935 33.779,19.753 C33.779,19.571 33.927,19.424 34.108,19.424" vector-effect="non-scaling-stroke"/><polygon points="33.943 21.404 34.274 21.404 34.274 20.282 33.943 20.282" fill="#D8232A" id="Fill-23_1574690052815" vector-effect="non-scaling-stroke"/><polyline points="39.488 0.903 39.488 1.347 38.801 1.347 38.801 0.903 37.8 0.903 37.8 1.347 37.114 1.347 37.114 0.903 36.11 0.903 36.11 2.081 36.565 2.081 36.565 3.885 35.822 3.885 35.822 5.046 34.385 5.046 34.385 3.885 33.641 3.885 33.641 2.081 34.096 2.081 34.096 0.903 33.094 0.903 33.094 1.347 32.407 1.347 32.407 0.903 31.405 0.903 31.405 1.347 30.718 1.347 30.718 0.903 29.716 0.903 29.716 2.081 30.172 2.081 30.172 3.885 29.428 3.885 29.428 5.046 27.99 5.046 27.99 3.885 27.246 3.885 27.246 2.081 27.701 2.081 27.701 0.903 26.699 0.903 26.699 1.347 26.013 1.347 26.013 0.903 25.01 0.903 25.01 1.347 24.324 1.347 24.324 0.903 23.322 0.903 23.322 2.081 23.776 2.081 23.776 3.885 23.032 3.885 23.032 5.046 21.597 5.046 21.597 3.885 20.851 3.885 20.851 2.081 21.307 2.081 21.307 0.903 20.304 0.903 20.304 1.347 19.618 1.347 19.618 0.903 18.616 0.903 18.616 1.347 17.929 1.347 17.929 0.903 16.928 0.903 16.928 2.081 17.383 2.081 17.383 3.885 16.638 3.885 16.638 5.046 15.201 5.046 15.201 3.885 14.457 3.885 14.457 2.081 14.913 2.081 14.913 0.903 13.909 0.903 13.909 1.347 13.224 1.347 13.224 0.903 12.22 0.903 12.22 1.347 11.535 1.347 11.535 0.903 10.531 0.903 10.531 2.081 10.986 2.081 10.986 5.1 12.736 6.959 12.736 9.874 11.868 9.874 11.868 12.887 39.155 12.887 39.155 9.874 38.286 9.874 38.286 6.959 40.035 5.1 40.035 2.081 40.489 2.081 40.489 0.903 39.488 0.903" fill="#D8232A" id="Fill-24_1574690052815" vector-effect="non-scaling-stroke"/><polygon points="29.162 27.182 35.156 27.182 35.156 24.783 29.162 24.783" fill="#D8232A" id="Fill-25_1574690052815" vector-effect="non-scaling-stroke"/><polygon points="29.162 27.182 35.156 27.182 35.156 24.783 29.162 24.783" stroke-width="0.058" stroke="#FFFFFE" id="Stroke-26_1574690052815" vector-effect="non-scaling-stroke"/><polyline points="29.162 21.621 29.162 24.422 36.463 24.422 34.369 21.621 29.162 21.621" fill="#D8232A" id="Fill-27_1574690052815" vector-effect="non-scaling-stroke"/><polygon points="29.162 21.621 29.162 24.422 36.463 24.422 34.369 21.621" stroke-width="0.058" stroke="#FFFFFE" id="Stroke-28_1574690052815" vector-effect="non-scaling-stroke"/><polyline points="21.858 21.621 16.654 21.621 14.559 24.422 21.858 24.422 21.858 21.621" fill="#D8232A" id="Fill-29_1574690052815" vector-effect="non-scaling-stroke"/><polygon points="21.858 21.621 16.654 21.621 14.559 24.422 21.858 24.422" stroke-width="0.058" stroke="#FFFFFE" id="Stroke-30_1574690052815" vector-effect="non-scaling-stroke"/><polygon points="15.867 27.182 21.858 27.182 21.858 24.783 15.867 24.783" fill="#D8232A" id="Fill-31_1574690052815" vector-effect="non-scaling-stroke"/><polygon points="15.867 27.182 21.858 27.182 21.858 24.783 15.867 24.783" stroke-width="0.058" stroke="#FFFFFE" id="Stroke-32_1574690052815" vector-effect="non-scaling-stroke"/><path fill="#FFFFFE" id="Fill-33_1574690052815" d="M21.798,34.326 L20.723,34.326 L20.723,32.778 C20.893,32.257 21.629,32.257 21.798,32.778 L21.798,34.326" vector-effect="non-scaling-stroke"/><path fill="#FFFFFE" id="Fill-34_1574690052815" d="M26.182,34.326 L24.839,34.326 L24.839,32.613 C25.05,31.962 25.972,31.962 26.182,32.613 L26.182,34.326" vector-effect="non-scaling-stroke"/><path fill="#FFFFFE" id="Fill-35_1574690052815" d="M23.968,34.326 L22.624,34.326 L22.624,32.613 C22.835,31.962 23.757,31.962 23.968,32.613 L23.968,34.326" vector-effect="non-scaling-stroke"/><path fill="#FFFFFE" id="Fill-36_1574690052815" d="M29.223,34.326 L30.298,34.326 L30.298,32.778 C30.128,32.257 29.393,32.257 29.223,32.778 L29.223,34.326" vector-effect="non-scaling-stroke"/><path fill="#FFFFFE" id="Fill-37_1574690052815" d="M27.055,34.326 L28.398,34.326 L28.398,32.613 C28.187,31.962 27.266,31.962 27.055,32.613 L27.055,34.326" vector-effect="non-scaling-stroke"/><path fill="#FFFFFE" id="Fill-38_1574690052815" d="M15.588,33.39 L14.828,33.39 L14.828,32.506 C14.948,32.137 15.469,32.137 15.588,32.506 L15.588,33.39" vector-effect="non-scaling-stroke"/><path stroke-width="0.058" stroke="#FFFFFE" id="Stroke-39_1574690052815" d="M15.588,33.39 L14.828,33.39 L14.828,32.506 C14.948,32.137 15.469,32.137 15.588,32.506 L15.588,33.39 Z" vector-effect="non-scaling-stroke"/><path fill="#FFFFFE" id="Fill-40_1574690052815" d="M17.095,33.39 L16.334,33.39 L16.334,32.506 C16.455,32.137 16.975,32.137 17.095,32.506 L17.095,33.39" vector-effect="non-scaling-stroke"/><path stroke-width="0.058" stroke="#FFFFFE" id="Stroke-41_1574690052815" d="M17.095,33.39 L16.334,33.39 L16.334,32.506 C16.455,32.137 16.975,32.137 17.095,32.506 L17.095,33.39 Z" vector-effect="non-scaling-stroke"/><path fill="#FFFFFE" id="Fill-42_1574690052815" d="M18.603,33.39 L17.842,33.39 L17.842,32.506 C17.962,32.137 18.483,32.137 18.603,32.506 L18.603,33.39" vector-effect="non-scaling-stroke"/><path stroke-width="0.058" stroke="#FFFFFE" id="Stroke-43_1574690052815" d="M18.603,33.39 L17.842,33.39 L17.842,32.506 C17.962,32.137 18.483,32.137 18.603,32.506 L18.603,33.39 Z" vector-effect="non-scaling-stroke"/><path fill="#FFFFFE" id="Fill-44_1574690052815" d="M33.179,33.39 L32.419,33.39 L32.419,32.506 C32.538,32.137 33.059,32.137 33.179,32.506 L33.179,33.39" vector-effect="non-scaling-stroke"/><path stroke-width="0.058" stroke="#FFFFFE" id="Stroke-45_1574690052815" d="M33.179,33.39 L32.419,33.39 L32.419,32.506 C32.538,32.137 33.059,32.137 33.179,32.506 L33.179,33.39 Z" vector-effect="non-scaling-stroke"/><path fill="#FFFFFE" id="Fill-46_1574690052815" d="M34.687,33.39 L33.925,33.39 L33.925,32.506 C34.047,32.137 34.566,32.137 34.687,32.506 L34.687,33.39" vector-effect="non-scaling-stroke"/><path stroke-width="0.058" stroke="#FFFFFE" id="Stroke-47_1574690052815" d="M34.687,33.39 L33.925,33.39 L33.925,32.506 C34.047,32.137 34.566,32.137 34.687,32.506 L34.687,33.39 Z" vector-effect="non-scaling-stroke"/><path fill="#FFFFFE" id="Fill-48_1574690052815" d="M36.192,33.39 L35.432,33.39 L35.432,32.506 C35.553,32.137 36.073,32.137 36.192,32.506 L36.192,33.39" vector-effect="non-scaling-stroke"/><path stroke-width="0.058" stroke="#FFFFFE" id="Stroke-49_1574690052815" d="M36.192,33.39 L35.432,33.39 L35.432,32.506 C35.553,32.137 36.073,32.137 36.192,32.506 L36.192,33.39 Z" vector-effect="non-scaling-stroke"/><path fill="#FFFFFE" id="Fill-50_1574690052815" d="M17.763,26.453 L17.001,26.453 L17.001,25.569 C17.122,25.201 17.643,25.201 17.763,25.569 L17.763,26.453" vector-effect="non-scaling-stroke"/><path stroke-width="0.058" stroke="#FFFFFE" id="Stroke-51_1574690052815" d="M17.763,26.453 L17.001,26.453 L17.001,25.569 C17.122,25.201 17.643,25.201 17.763,25.569 L17.763,26.453 Z" vector-effect="non-scaling-stroke"/><path fill="#FFFFFE" id="Fill-52_1574690052815" d="M19.27,26.453 L18.509,26.453 L18.509,25.569 C18.628,25.201 19.149,25.201 19.27,25.569 L19.27,26.453" vector-effect="non-scaling-stroke"/><path stroke-width="0.058" stroke="#FFFFFE" id="Stroke-53_1574690052815" d="M19.27,26.453 L18.509,26.453 L18.509,25.569 C18.628,25.201 19.149,25.201 19.27,25.569 L19.27,26.453 Z" vector-effect="non-scaling-stroke"/><path fill="#FFFFFE" id="Fill-54_1574690052815" d="M20.775,26.453 L20.016,26.453 L20.016,25.569 C20.135,25.201 20.656,25.201 20.775,25.569 L20.775,26.453" vector-effect="non-scaling-stroke"/><path stroke-width="0.058" stroke="#FFFFFE" id="Stroke-55_1574690052815" d="M20.775,26.453 L20.016,26.453 L20.016,25.569 C20.135,25.201 20.656,25.201 20.775,25.569 L20.775,26.453 Z" vector-effect="non-scaling-stroke"/><path fill="#FFFFFE" id="Fill-56_1574690052815" d="M31.006,26.453 L30.244,26.453 L30.244,25.569 C30.365,25.201 30.885,25.201 31.006,25.569 L31.006,26.453" vector-effect="non-scaling-stroke"/><path stroke-width="0.058" stroke="#FFFFFE" id="Stroke-57_1574690052815" d="M31.006,26.453 L30.244,26.453 L30.244,25.569 C30.365,25.201 30.885,25.201 31.006,25.569 L31.006,26.453 Z" vector-effect="non-scaling-stroke"/><path fill="#FFFFFE" id="Fill-58_1574690052815" d="M32.513,26.453 L31.753,26.453 L31.753,25.569 C31.872,25.201 32.393,25.201 32.513,25.569 L32.513,26.453" vector-effect="non-scaling-stroke"/><path stroke-width="0.058" stroke="#FFFFFE" id="Stroke-59_1574690052815" d="M32.513,26.453 L31.753,26.453 L31.753,25.569 C31.872,25.201 32.393,25.201 32.513,25.569 L32.513,26.453 Z" vector-effect="non-scaling-stroke"/><path fill="#FFFFFE" id="Fill-60_1574690052815" d="M34.019,26.453 L33.259,26.453 L33.259,25.569 C33.378,25.201 33.898,25.201 34.019,25.569 L34.019,26.453" vector-effect="non-scaling-stroke"/><path stroke-width="0.058" stroke="#FFFFFE" id="Stroke-61_1574690052815" d="M34.019,26.453 L33.259,26.453 L33.259,25.569 C33.378,25.201 33.898,25.201 34.019,25.569 L34.019,26.453 Z" vector-effect="non-scaling-stroke"/><path fill="#FFFFFE" id="Fill-62_1574690052815" d="M24.384,22.398 L23.623,22.398 L23.623,21.514 C23.744,21.146 24.266,21.146 24.384,21.514 L24.384,22.398" vector-effect="non-scaling-stroke"/><path stroke-width="0.058" stroke="#FFFFFE" id="Stroke-63_1574690052815" d="M24.384,22.398 L23.623,22.398 L23.623,21.514 C23.744,21.146 24.266,21.146 24.384,21.514 L24.384,22.398 Z" vector-effect="non-scaling-stroke"/><path fill="#FFFFFE" id="Fill-64_1574690052815" d="M25.891,22.398 L25.129,22.398 L25.129,21.514 C25.251,21.146 25.771,21.146 25.891,21.514 L25.891,22.398" vector-effect="non-scaling-stroke"/><path stroke-width="0.058" stroke="#FFFFFE" id="Stroke-65_1574690052815" d="M25.891,22.398 L25.129,22.398 L25.129,21.514 C25.251,21.146 25.771,21.146 25.891,21.514 L25.891,22.398 Z" vector-effect="non-scaling-stroke"/><path fill="#FFFFFE" id="Fill-66_1574690052815" d="M27.398,22.398 L26.637,22.398 L26.637,21.514 C26.758,21.146 27.277,21.146 27.398,21.514 L27.398,22.398" vector-effect="non-scaling-stroke"/><path stroke-width="0.058" stroke="#FFFFFE" id="Stroke-67_1574690052815" d="M27.398,22.398 L26.637,22.398 L26.637,21.514 C26.758,21.146 27.277,21.146 27.398,21.514 L27.398,22.398 Z" vector-effect="non-scaling-stroke"/><path fill="#D8232A" id="Fill-68_1574690052815" d="M20.777,30.939 C20.921,31.007 21.132,31.075 21.397,31.075 C21.949,31.074 22.206,30.885 22.217,30.877 L22.255,30.848 L24.94,25.078 L20.748,30.926 C20.757,30.931 20.767,30.936 20.777,30.939" vector-effect="non-scaling-stroke"/><path stroke-width="0.058" stroke="#FFFFFE" id="Stroke-69_1574690052815" d="M20.777,30.939 C20.921,31.007 21.132,31.075 21.397,31.075 C21.949,31.074 22.206,30.885 22.217,30.877 L22.255,30.848 L24.94,25.078 L20.748,30.926 C20.757,30.931 20.767,30.936 20.777,30.939 Z" vector-effect="non-scaling-stroke"/><path fill="#D8232A" id="Fill-70_1574690052815" d="M22.635,30.958 C22.784,31.008 23.01,31.0590037 23.31,31.0590037 C23.776,31.06 24.139,30.856 24.211,30.811 C24.222,30.804 24.224,30.803 24.224,30.803 L24.225,30.802 L25.262,24.913 L22.605,30.947 C22.615,30.951 22.625,30.954 22.635,30.958" vector-effect="non-scaling-stroke"/><path stroke-width="0.058" stroke="#FFFFFE" id="Stroke-71_1574690052815" d="M22.635,30.958 C22.784,31.008 23.01,31.0590037 23.31,31.0590037 C23.776,31.06 24.139,30.856 24.211,30.811 C24.222,30.804 24.224,30.803 24.224,30.803 L24.225,30.802 L25.262,24.913 L22.605,30.947 C22.615,30.951 22.625,30.954 22.635,30.958 Z" vector-effect="non-scaling-stroke"/><path fill="#D8232A" id="Fill-72_1574690052815" d="M24.62,30.923 C24.767,30.981 25.041,31.049 25.51,31.049 C26.037,31.049 26.315,30.965 26.448,30.902 L25.51,24.789 L24.573,30.903 C24.587,30.909 24.603,30.916 24.62,30.923" vector-effect="non-scaling-stroke"/><path stroke-width="0.058" stroke="#FFFFFE" id="Stroke-73_1574690052815" d="M24.62,30.923 C24.767,30.981 25.041,31.049 25.51,31.049 C26.037,31.049 26.315,30.965 26.448,30.902 L25.51,24.789 L24.573,30.903 C24.587,30.909 24.603,30.916 24.62,30.923 Z" vector-effect="non-scaling-stroke"/><path fill="#D8232A" id="Fill-74_1574690052815" d="M18.84,30.886 C18.953,30.946 19.121,31.0080233 19.349,31.0080233 C19.704,31.01 20.115,30.883 20.291,30.818 C20.35,30.798 20.381,30.785 20.381,30.785 L20.415,30.771 L24.48,25.29 L18.831,30.88 C18.834,30.882 18.837,30.884 18.84,30.886" vector-effect="non-scaling-stroke"/><path stroke-width="0.058" stroke="#FFFFFE" id="Stroke-75_1574690052815" d="M18.84,30.886 C18.953,30.946 19.121,31.0080233 19.349,31.0080233 C19.704,31.01 20.115,30.883 20.291,30.818 C20.35,30.798 20.381,30.785 20.381,30.785 L20.415,30.771 L24.48,25.29 L18.831,30.88 C18.834,30.882 18.837,30.884 18.84,30.886 Z" vector-effect="non-scaling-stroke"/><path fill="#D8232A" id="Fill-76_1574690052815" d="M30.242,30.939 C30.253,30.936 30.263,30.931 30.272,30.926 L26.074,25.069 L28.765,30.848 L28.803,30.877 C28.813,30.885 29.07,31.074 29.623,31.075 C29.888,31.075 30.099,31.007 30.242,30.939" vector-effect="non-scaling-stroke"/><path stroke-width="0.058" stroke="#FFFFFE" id="Stroke-77_1574690052815" d="M30.242,30.939 C30.253,30.936 30.263,30.931 30.272,30.926 L26.074,25.069 L28.765,30.848 L28.803,30.877 C28.813,30.885 29.07,31.074 29.623,31.075 C29.888,31.075 30.099,31.007 30.242,30.939 Z" vector-effect="non-scaling-stroke"/><path fill="#D8232A" id="Fill-78_1574690052815" d="M28.385,30.958 C28.396,30.954 28.405,30.951 28.415,30.947 L25.751,24.912 L26.795,30.802 L26.796,30.803 C26.796,30.803 26.798,30.804 26.809,30.811 C26.881,30.856 27.243,31.06 27.71,31.0590037 C28.01,31.0590037 28.236,31.008 28.385,30.958" vector-effect="non-scaling-stroke"/><path stroke-width="0.058" stroke="#FFFFFE" id="Stroke-79_1574690052815" d="M28.385,30.958 C28.396,30.954 28.405,30.951 28.415,30.947 L25.751,24.912 L26.795,30.802 L26.796,30.803 C26.796,30.803 26.798,30.804 26.809,30.811 C26.881,30.856 27.243,31.06 27.71,31.0590037 C28.01,31.0590037 28.236,31.008 28.385,30.958 Z" vector-effect="non-scaling-stroke"/><path fill="#D8232A" id="Fill-80_1574690052815" d="M32.18,30.886 C32.183,30.884 32.186,30.882 32.189,30.88 L26.531,25.285 L30.605,30.771 L30.639,30.785 C30.639,30.785 30.67,30.798 30.729,30.818 C30.905,30.883 31.315,31.01 31.67,31.0080233 C31.899,31.0080233 32.067,30.946 32.18,30.886" vector-effect="non-scaling-stroke"/><path stroke-width="0.058" stroke="#FFFFFE" id="Stroke-81_1574690052815" d="M32.18,30.886 C32.183,30.884 32.186,30.882 32.189,30.88 L26.531,25.285 L30.605,30.771 L30.639,30.785 C30.639,30.785 30.67,30.798 30.729,30.818 C30.905,30.883 31.315,31.01 31.67,31.0080233 C31.899,31.0080233 32.067,30.946 32.18,30.886 Z" vector-effect="non-scaling-stroke"/><polyline points="26.18 23.519 25.51 24.188 24.84 23.519 25.51 22.85 26.18 23.519" fill="#FFFFFE" id="Fill-82_1574690052815" vector-effect="non-scaling-stroke"/><g transform="translate(0.000000, 18.000000)" id="Group-86_1574690052815"><mask fill="white" id="mask-2_1574690052815" vector-effect="non-scaling-stroke"><use xmlns:xlink="http://www.w3.org/1999/xlink" xlink:href="#path-1_1574690052815" vector-effect="non-scaling-stroke"/></mask><g id="Clip-84_1574690052815"/><polyline points="21.567 2.422 29.454 2.422 29.454 0.822 28.507 0.822 28.507 1.719 27.146 1.719 27.146 0.752 26.278 0.752 26.278 1.719 24.742 1.719 24.742 0.752 23.875 0.752 23.875 1.719 22.514 1.719 22.514 0.822 21.567 0.822 21.567 2.422" mask="url(#mask-2_1574690052815)" fill="#D8232A" id="Fill-83_1574690052815" vector-effect="non-scaling-stroke"/><polyline points="3.182 36.927 3.182 34.828 0.762 34.828 0.762 36.927 0 36.927 0 32.14 0.762 32.14 0.762 34.159 3.182 34.159 3.182 32.14 3.945 32.14 3.945 36.927 3.182 36.927" mask="url(#mask-2_1574690052815)" fill="#6F8F9D" id="Fill-85_1574690052815" vector-effect="non-scaling-stroke"/></g><polyline points="5.732 54.927 5.732 50.14 8.289 50.14 8.057 50.794 6.496 50.794 6.496 52.152 8.05 52.152 8.05 52.807 6.496 52.807 6.496 54.272 8.297 54.272 8.297 54.927 5.732 54.927" fill="#6F8F9D" id="Fill-87_1574690052815" vector-effect="non-scaling-stroke"/><g transform="translate(9.000000, 50.000000)" id="Group-91_1574690052815"><mask fill="white" id="mask-4_1574690052815" vector-effect="non-scaling-stroke"><use xmlns:xlink="http://www.w3.org/1999/xlink" xlink:href="#path-3_1574690052815" vector-effect="non-scaling-stroke"/></mask><g id="Clip-89_1574690052815"/><polyline points="0.889 4.927 0.889 0.14 1.644 0.14 1.644 4.272 3.396 4.272 3.396 4.927 0.889 4.927" mask="url(#mask-4_1574690052815)" fill="#6F8F9D" id="Fill-88_1574690052815" vector-effect="non-scaling-stroke"/><path mask="url(#mask-4_1574690052815)" fill="#6F8F9D" id="Fill-90_1574690052815" d="M5.888,5 C5.228,5 4.775,4.781 4.472,4.587 L4.791,4.012 C5.031,4.179 5.408,4.369 5.859,4.369 C6.251,4.369 6.709,4.192 6.709,3.757 C6.709,3.022 5.554,2.879 4.972,2.231 C4.775,2.014 4.646,1.744 4.646,1.376 C4.646,0.677 5.184,0.095 6.15,0.095 C6.659,0.095 7.036,0.227 7.283,0.357 L7.275,1.068 C6.948,0.874 6.579,0.735 6.186,0.735 C5.772,0.735 5.43,0.909 5.43,1.286 C5.43,2.231 7.522,2.204 7.522,3.67 C7.522,4.477 6.811,5 5.888,5" vector-effect="non-scaling-stroke"/></g><polygon points="18.042 54.927 18.804 54.927 18.804 50.14 18.042 50.14" fill="#6F8F9D" id="Fill-92_1574690052815" vector-effect="non-scaling-stroke"/><g transform="translate(20.000000, 50.000000)" id="Group-100_1574690052815"><mask fill="white" id="mask-6_1574690052815" vector-effect="non-scaling-stroke"><use xmlns:xlink="http://www.w3.org/1999/xlink" xlink:href="#path-5_1574690052815" vector-effect="non-scaling-stroke"/></mask><g id="Clip-94_1574690052815"/><path mask="url(#mask-6_1574690052815)" fill="#6F8F9D" id="Fill-93_1574690052815" d="M4.08,4.927 L1.826,1.985 C1.594,1.681 1.465,1.49 1.348,1.294 L1.333,1.294 C1.348,1.455 1.348,1.688 1.348,1.92 L1.348,4.927 L0.593,4.927 L0.593,0.14 L1.363,0.14 L3.527,2.973 C3.79,3.315 3.919,3.496 4.029,3.693 L4.043,3.693 C4.036,3.496 4.029,3.257 4.029,3.022 L4.029,0.14 L4.792,0.14 L4.792,4.927 L4.08,4.927" vector-effect="non-scaling-stroke"/><path mask="url(#mask-6_1574690052815)" fill="#6F8F9D" id="Fill-95_1574690052815" d="M8.585,5 C7.125,5 6.19,3.975 6.19,2.596 C6.19,1.148 7.226,0.095 8.788,0.095 C9.398,0.095 9.863,0.233 10.177,0.365 L10.169,1.099 C9.819,0.918 9.362,0.742 8.84,0.742 C7.597,0.742 7.01,1.528 7.01,2.522 C7.01,3.597 7.684,4.353 8.78,4.353 C9.138,4.353 9.413,4.289 9.588,4.192 L9.588,2.544 L10.35,2.544 L10.35,4.577 C9.965,4.781 9.334,5 8.585,5" vector-effect="non-scaling-stroke"/><path mask="url(#mask-6_1574690052815)" fill="#6F8F9D" id="Fill-96_1574690052815" d="M13.476,4.927 L12.065,4.927 L12.065,0.14 L13.519,0.14 C14.435,0.14 14.855,0.749 14.855,1.317 C14.855,1.761 14.645,2.152 14.246,2.335 L14.246,2.34 C14.747,2.45 15.16,2.907 15.16,3.503 C15.16,4.172 14.703,4.927 13.476,4.927 Z M12.829,0.801 L12.829,2.159 L13.373,2.159 C13.73,2.159 14.078,1.898 14.078,1.463 C14.078,1.062 13.839,0.801 13.314,0.801 L12.829,0.801 Z M13.476,2.813 L12.829,2.813 L12.829,4.272 L13.439,4.272 C14.059,4.272 14.37,3.968 14.37,3.51 C14.37,3.104 14.035,2.813 13.476,2.813 L13.476,2.813 Z" vector-effect="non-scaling-stroke"/><path mask="url(#mask-6_1574690052815)" fill="#6F8F9D" id="Fill-97_1574690052815" d="M16.972,0.794 C17.399,0.357 18.002,0.095 18.707,0.095 C19.462,0.095 20.096,0.372 20.523,0.844 C20.917,1.279 21.125,1.868 21.125,2.544 C21.125,3.264 20.879,3.895 20.437,4.331 C19.999,4.761 19.412,5 18.707,5 C18.031,5 17.465,4.788 17.043,4.411 C16.563,3.968 16.289,3.322 16.289,2.572 C16.289,1.861 16.535,1.237 16.972,0.794 Z M18.707,0.757 C17.741,0.757 17.095,1.439 17.095,2.561 C17.095,3.67 17.741,4.353 18.707,4.353 C19.666,4.353 20.313,3.67 20.313,2.561 C20.313,1.483 19.709,0.757 18.707,0.757 L18.707,0.757 Z" vector-effect="non-scaling-stroke"/><path mask="url(#mask-6_1574690052815)" fill="#6F8F9D" id="Fill-98_1574690052815" d="M25.035,4.927 C24.287,3.693 23.917,3.039 23.729,2.987 L23.285,2.987 L23.285,4.927 L22.522,4.927 L22.522,0.14 L23.714,0.14 C24.912,0.14 25.371,0.742 25.371,1.477 C25.371,2.131 24.941,2.551 24.47,2.741 L24.47,2.748 C24.665,2.849 25.174,3.7 25.923,4.927 L25.035,4.927 Z M23.721,0.801 L23.285,0.801 L23.285,2.392 L23.736,2.392 C24.229,2.392 24.593,2.014 24.593,1.557 C24.593,1.144 24.339,0.801 23.721,0.801 L23.721,0.801 Z" vector-effect="non-scaling-stroke"/><path mask="url(#mask-6_1574690052815)" fill="#6F8F9D" id="Fill-99_1574690052815" d="M29.259,5 C27.797,5 26.86,3.975 26.86,2.596 C26.86,1.148 27.899,0.095 29.461,0.095 C30.071,0.095 30.537,0.233 30.849,0.365 L30.843,1.099 C30.493,0.918 30.036,0.742 29.513,0.742 C28.27,0.742 27.681,1.528 27.681,2.522 C27.681,3.597 28.356,4.353 29.454,4.353 C29.81,4.353 30.087,4.289 30.26,4.192 L30.26,2.544 L31.023,2.544 L31.023,4.577 C30.639,4.781 30.006,5 29.259,5" vector-effect="non-scaling-stroke"/></g><path stroke-width="0.132" stroke="#6F8F9D" id="Stroke-101_1574690052815" d="M39.678,12.887 L11.345,12.887 C11.336,38.609 11.345,38.609 11.345,39.833 C11.345,40.985 11.82,42.205 13.648,42.679 C15.476,43.152 22.317,44.758 23.534,45.048 C25.168,45.437 25.506,46.741 25.506,46.741 C25.506,46.741 25.856,45.437 27.48,45.048 C28.695,44.756 35.538,43.152 37.366,42.679 C39.193,42.205 39.678,40.985 39.678,39.833 C39.678,38.609 39.687,38.609 39.678,12.887 Z" vector-effect="non-scaling-stroke"/></g></g></g></svg>