<svg width="128" height="140" viewBox="0 0 128 140" fill="none" xmlns="http://www.w3.org/2000/svg">
<path d="M13.0746 131.441V126.656H7.55698V131.441H5.81848V120.523H7.55698V125.13H13.0746V120.523H14.8164V131.441H13.0746Z" fill="#707070"/>
<path d="M18.8919 131.441V120.523H24.7227L24.1924 122.016H20.6333V125.114H24.1772V126.607H20.6333V129.949H24.7416V131.441H18.8919Z" fill="#707070"/>
<path d="M28.3704 131.441V120.523H30.0933V129.949H34.0892V131.441H28.3704Z" fill="#707070"/>
<path d="M39.7723 131.608C38.2669 131.608 37.2341 131.109 36.5416 130.666L37.2714 129.355C37.817 129.736 38.6778 130.17 39.7053 130.17C40.5986 130.17 41.6442 129.767 41.6442 128.774C41.6442 127.099 39.0095 126.771 37.6832 125.294C37.2341 124.798 36.941 124.183 36.941 123.343C36.941 121.749 38.1651 120.421 40.3691 120.421C41.5292 120.421 42.3905 120.722 42.9529 121.021L42.936 122.642C42.1901 122.198 41.3482 121.883 40.4516 121.883C39.5071 121.883 38.7267 122.279 38.7267 123.138C38.7267 125.294 43.4984 125.233 43.4984 128.575C43.4984 130.415 41.8769 131.608 39.7723 131.608Z" fill="#707070"/>
<path d="M48.7034 131.441H46.9649V120.523H48.7034V131.441Z" fill="#707070"/>
<path d="M60.7353 131.441L55.5949 124.733C55.0662 124.039 54.7714 123.604 54.5038 123.156H54.4713C54.5038 123.524 54.5038 124.055 54.5038 124.584V131.441H52.7821V120.523H54.5383L59.4738 126.985C60.0727 127.767 60.3691 128.179 60.6183 128.628H60.6507C60.6339 128.179 60.6183 127.633 60.6183 127.098V120.523H62.3588V131.441H60.7353Z" fill="#707070"/>
<path d="M71.0092 131.608C67.6799 131.608 65.5457 129.27 65.5457 126.126C65.5457 122.825 67.9086 120.421 71.4726 120.421C72.8642 120.421 73.925 120.738 74.6397 121.038L74.622 122.711C73.824 122.299 72.7817 121.899 71.59 121.899C68.7555 121.899 67.4168 123.691 67.4168 125.958C67.4168 128.408 68.9529 130.131 71.455 130.131C72.2694 130.131 72.8979 129.988 73.2961 129.767V126.007H75.0342V130.644C74.1565 131.109 72.7169 131.608 71.0092 131.608Z" fill="#707070"/>
<path d="M82.1631 126.622H80.6881V129.949H82.0805C83.4919 129.949 84.2033 129.254 84.2033 128.209C84.2033 127.286 83.4385 126.622 82.1631 126.622ZM80.6881 122.032V125.13H81.9295C82.7443 125.13 83.5374 124.535 83.5374 123.541C83.5374 122.627 82.9915 122.032 81.7952 122.032H80.6881ZM82.1631 131.441H78.9471V120.524H82.2603C84.3494 120.524 85.31 121.913 85.31 123.209C85.31 124.22 84.8285 125.114 83.9196 125.531V125.541C85.0625 125.793 86.0042 126.836 86.0042 128.194C86.0042 129.72 84.9619 131.441 82.1631 131.441Z" fill="#707070"/>
<path d="M94.0939 121.931C91.8915 121.931 90.417 123.488 90.417 126.045C90.417 128.575 91.8915 130.132 94.0939 130.132C96.2807 130.132 97.7577 128.575 97.7577 126.045C97.7577 123.588 96.3784 121.931 94.0939 121.931ZM90.1358 122.016C91.1112 121.021 92.4859 120.421 94.0939 120.421C95.8151 120.421 97.2609 121.053 98.2367 122.129C99.1333 123.123 99.6086 124.466 99.6086 126.008C99.6086 127.649 99.0467 129.087 98.0376 130.083C97.0405 131.063 95.7018 131.608 94.0939 131.608C92.5524 131.608 91.261 131.125 90.2988 130.266C89.2052 129.255 88.5787 127.783 88.5787 126.072C88.5787 124.451 89.1407 123.027 90.1358 122.016Z" fill="#707070"/>
<path d="M105.528 122.032H104.534V125.66H105.564C106.688 125.66 107.517 124.798 107.517 123.755C107.517 122.813 106.938 122.032 105.528 122.032ZM108.526 131.442C106.82 128.629 105.976 127.137 105.546 127.019H104.534V131.442H102.795V120.523H105.512C108.245 120.523 109.292 121.899 109.292 123.574C109.292 125.066 108.311 126.023 107.236 126.457V126.473C107.681 126.702 108.841 128.644 110.55 131.442H108.526Z" fill="#707070"/>
<path d="M118.158 131.608C114.824 131.608 112.688 129.27 112.688 126.126C112.688 122.825 115.058 120.421 118.619 120.421C120.011 120.421 121.073 120.738 121.784 121.038L121.771 122.711C120.972 122.299 119.93 121.899 118.736 121.899C115.902 121.899 114.558 123.691 114.558 125.958C114.558 128.408 116.1 130.131 118.603 130.131C119.414 130.131 120.047 129.988 120.44 129.767V126.007H122.183V130.644C121.305 131.109 119.861 131.608 118.158 131.608Z" fill="#707070"/>
<path d="M64.0003 41.6308C64.3525 41.6308 64.6415 41.9194 64.6415 42.272C64.6415 42.625 64.3525 42.9136 64.0003 42.9136C63.6477 42.9136 63.3591 42.625 63.3591 42.272C63.3591 41.9194 63.6477 41.6308 64.0003 41.6308Z" fill="#707070"/>
<path d="M65.2846 40.7891C65.2846 40.7891 65.336 40.4759 65.336 40.0551C65.336 39.6344 65.2846 39.3216 65.2846 39.3216C65.2846 39.3216 64.8947 39.549 64.4895 39.5248C64.4406 38.932 64.8462 38.2994 64.8462 38.2994C64.8462 38.2994 64.3039 38.4702 64.0002 38.4702C63.6968 38.4702 63.1553 38.2994 63.1553 38.2994C63.1553 38.2994 63.5605 38.932 63.5117 39.5248C63.1061 39.549 62.7161 39.3216 62.7161 39.3216C62.7161 39.3216 62.6648 39.6344 62.6648 40.0551C62.6648 40.4759 62.7161 40.7891 62.7161 40.7891C62.7161 40.7891 63.1061 40.5617 63.5117 40.5855C63.5474 41.0198 63.3175 41.4521 63.1915 41.6528L63.2608 41.705C63.432 41.4825 63.7005 41.3384 64.0002 41.3384C64.3011 41.3384 64.5687 41.4825 64.7399 41.705L64.8097 41.6528C64.6832 41.4521 64.4542 41.0198 64.4895 40.5855C64.8947 40.5617 65.2846 40.7891 65.2846 40.7891Z" fill="#707070"/>
<path d="M64.0006 43.1548L57.7145 48.0468V50.0681H59.4842V48.0468H63.1159V50.0681H64.8848V48.0468H68.5169V50.0681H70.2866V48.0468L64.0006 43.1548Z" fill="#707070"/>
<path d="M71.2172 48.9774V50.9991H67.5855V48.9774H65.8166V50.9991H62.1845V48.9774H60.4152V50.9991H56.7839V48.9774H55.0142V50.9991V52.7364H72.9874V50.9991V48.9774H71.2172Z" fill="#707070"/>
<path d="M43.642 51.596C43.642 51.1814 43.9778 50.8452 44.3924 50.8452C44.807 50.8452 45.1428 51.1814 45.1428 51.596C45.1428 52.0106 44.807 52.3464 44.3924 52.3464C43.9778 52.3464 43.642 52.0106 43.642 51.596Z" fill="#707070"/>
<path d="M44.7678 55.4848V52.7997H44.0174V55.4848L39.0684 61.8107H55.6204V55.4848H44.7678Z" fill="#707070"/>
<path d="M42.0618 68.1095H55.6196V62.7417H42.0618V68.1095ZM46.3426 66.5713H44.4653V64.5102C44.4653 64.0972 44.8857 63.7626 45.4038 63.7626C45.9222 63.7626 46.3426 64.0972 46.3426 64.5102V66.5713ZM49.7798 66.5713H47.9025V64.5102C47.9025 64.0972 48.3229 63.7626 48.8413 63.7626C49.3594 63.7626 49.7798 64.0972 49.7798 64.5102V66.5713ZM53.2169 66.5713H51.3393V64.5102C51.3393 64.0972 51.76 63.7626 52.2785 63.7626C52.7962 63.7626 53.2169 64.0972 53.2169 64.5102V66.5713Z" fill="#707070"/>
<path d="M84.3593 51.596C84.3593 51.1814 84.0235 50.8452 83.6089 50.8452C83.1938 50.8452 82.8585 51.1814 82.8585 51.596C82.8585 52.0106 83.1938 52.3464 83.6089 52.3464C84.0235 52.3464 84.3593 52.0106 84.3593 51.596Z" fill="#707070"/>
<path d="M83.2335 55.4848V52.7997H83.9835V55.4848L88.933 61.8107H72.3809V55.4848H83.2335Z" fill="#707070"/>
<path d="M72.3805 68.1095H85.9383V62.7417H72.3805V68.1095ZM81.6588 64.5102C81.6588 64.0972 82.0783 63.7626 82.5972 63.7626C83.1156 63.7626 83.5352 64.0972 83.5352 64.5102V66.5713H81.6588V64.5102ZM78.2216 64.5102C78.2216 64.0972 78.6411 63.7626 79.16 63.7626C79.6785 63.7626 80.098 64.0972 80.098 64.5102V66.5713H78.2216V64.5102ZM74.7844 64.5102C74.7844 64.0972 75.204 63.7626 75.7228 63.7626C76.2413 63.7626 76.6613 64.0972 76.6613 64.5102V66.5713H74.7844V64.5102Z" fill="#707070"/>
<path d="M47.6104 76.4607L55.3037 69.0404H41.3813C41.3813 69.0404 36.6794 70.6639 36.6794 74.246C36.6794 75.2518 37.1847 76.0436 37.5213 76.4607H47.6104Z" fill="#707070"/>
<path d="M80.3908 76.4607L72.6974 69.0404H86.6198C86.6198 69.0404 91.3217 70.6639 91.3217 74.246C91.3217 75.2518 90.8164 76.0436 90.4794 76.4607H80.3908Z" fill="#707070"/>
<path d="M48.7193 76.6708L61.1125 64.3806L51.9529 76.4688C51.7529 76.6002 51.1524 76.9265 50.1236 76.9265C49.4898 76.9265 49.0054 76.7837 48.7193 76.6708ZM52.9964 76.6145L62.3555 63.8482L56.4134 76.4622C56.133 76.6129 55.4405 76.9265 54.5407 76.9265C53.8482 76.9265 53.3227 76.7598 52.9964 76.6145ZM57.3715 76.5858L63.2742 63.4508L61.0156 76.4335C60.6133 76.5944 59.6934 76.9265 58.9471 76.9265C58.1696 76.9265 57.6523 76.7323 57.3715 76.5858ZM64.0004 76.9265C62.8469 76.9249 62.2192 76.7028 61.9323 76.5579L64.0008 63.1146L66.0689 76.5587C65.782 76.7028 65.1539 76.9249 64.0004 76.9265ZM66.9856 76.4335L64.727 63.4508L70.6292 76.585C70.3481 76.7332 69.8304 76.9265 69.0541 76.9265C68.3074 76.9265 67.3883 76.5944 66.9856 76.4335ZM71.5865 76.4614L65.6453 63.8482L75.0044 76.6145C74.6777 76.7607 74.1522 76.9265 73.4609 76.9265C72.5689 76.9265 71.8694 76.6108 71.5865 76.4614ZM76.0488 76.4688L66.8883 64.3806L79.2819 76.6708C78.9945 76.7837 78.5106 76.9265 77.8771 76.9265C76.8455 76.9265 76.2454 76.5977 76.0488 76.4688Z" fill="#707070"/>
<path d="M48.0568 77.3915H38.1533V86.648H39.4333V90.2921H45.3552V86.648H49.6327V77.8324C48.8466 77.7573 48.2941 77.5151 48.0568 77.3915ZM42.9546 80.3427C42.9546 79.9309 43.3745 79.5964 43.8926 79.5964C44.4115 79.5964 44.8318 79.9309 44.8318 80.3427V82.4042H42.9546V80.3427ZM39.5174 80.3427C39.5174 79.9309 39.9378 79.5964 40.4554 79.5964C40.9743 79.5964 41.3947 79.9309 41.3947 80.3427V82.4042H39.5174V80.3427ZM48.269 82.4042H46.3918V80.3427C46.3918 79.9309 46.8117 79.5964 47.3298 79.5964C47.8482 79.5964 48.269 79.9309 48.269 80.3427V82.4042Z" fill="#707070"/>
<path d="M78.3682 77.8325V86.6482H82.6457V90.2922H88.5677V86.6482H89.8476V77.3925H79.9442C79.7069 77.5152 79.1539 77.757 78.3682 77.8325ZM85.0463 82.4052H83.1687V80.3428C83.1687 79.9306 83.5895 79.5965 84.1071 79.5965C84.6256 79.5965 85.0463 79.9306 85.0463 80.3428V82.4052ZM88.4835 82.4052H86.6059V80.3428C86.6059 79.9306 87.0266 79.5965 87.5447 79.5965C88.0627 79.5965 88.4835 79.9306 88.4835 80.3428V82.4052ZM79.7319 80.3428C79.7319 79.9306 80.1527 79.5965 80.6703 79.5965C81.1888 79.5965 81.6092 79.9306 81.6092 80.3428V82.4052H79.7319V80.3428Z" fill="#707070"/>
<path d="M75.6679 77.3242C75.2812 77.5376 74.5229 77.8574 73.4606 77.8574C72.4359 77.8574 71.624 77.5253 71.218 77.3192C70.8518 77.538 70.133 77.8574 69.0542 77.8574C68.1511 77.8574 67.115 77.4884 66.6466 77.3008C66.2701 77.527 65.4725 77.8549 64.0095 77.8574H63.9918C62.5284 77.8549 61.7299 77.527 61.3539 77.3008C60.8855 77.4884 59.849 77.8574 58.9471 77.8574C57.8683 77.8574 57.1495 77.538 56.7821 77.3192C56.3765 77.5253 55.5649 77.8574 54.5403 77.8574C53.4779 77.8574 52.7201 77.5376 52.333 77.3242C52.0083 77.5101 51.4168 77.7692 50.5641 77.8389V86.648H53.8371V90.2913H59.7591V86.648H68.241V90.2913H74.1638V86.648H77.4371V77.8389C76.5841 77.7692 75.9922 77.5101 75.6679 77.3242ZM55.5485 84.46H53.0613V80.9161C53.0613 80.3693 53.6183 79.926 54.3047 79.926C54.9919 79.926 55.5485 80.3693 55.5485 80.9161V84.46ZM60.4898 84.46H57.4036V80.6677C57.4036 79.9892 58.0945 79.4391 58.9471 79.4391C59.7993 79.4391 60.4898 79.9892 60.4898 80.6677V84.46ZM65.5435 84.46H62.4569V80.6677C62.4569 79.9892 63.1482 79.4391 64 79.4391C64.8522 79.4391 65.5435 79.9892 65.5435 80.6677V84.46ZM70.5965 84.46H67.5111V80.6677C67.5111 79.9892 68.2016 79.4391 69.0542 79.4391C69.9064 79.4391 70.5965 79.9892 70.5965 80.6677V84.46ZM74.94 84.46H72.4519V80.9161C72.4519 80.3693 73.0086 79.926 73.6954 79.926C74.3826 79.926 74.94 80.3693 74.94 80.9161V84.46Z" fill="#707070"/>
<path d="M62.4612 59.9006L64.0006 58.3616L65.54 59.9006L64.4021 61.0385L71.4497 67.8373V53.667H56.5511V67.8373L63.5991 61.0385L62.4612 59.9006ZM66.4994 55.3201C66.4994 54.9076 66.9189 54.573 67.4378 54.573C67.9563 54.573 68.3758 54.9076 68.3758 55.3201V57.3809H66.4994V55.3201ZM63.0618 55.3201C63.0618 54.9076 63.4826 54.573 64.0006 54.573C64.5191 54.573 64.9386 54.9076 64.9386 55.3201V57.3809H63.0618V55.3201ZM61.5014 57.3809H59.625V55.3201C59.625 54.9076 60.0454 54.573 60.5634 54.573C61.0819 54.573 61.5014 54.9076 61.5014 55.3201V57.3809Z" fill="#707070"/>
<path d="M95.8668 8.23028V9.23356H94.3167V8.23028H92.022V9.23356H90.4711V8.23028H88.1772V10.9273H89.2105V15.0402H87.5097V17.8058H84.4933V15.0402H82.791V10.9273H83.8254V8.23028H81.5307V9.23356H79.981V8.23028H77.6863V9.23356H76.1362V8.23028H73.8415V10.9273H74.8752V15.0402H73.174V17.8058H69.6597V15.0402H67.959V10.9273H68.9922V8.23028H66.6975V9.23356H65.1478V8.23028H62.8531V9.23356H61.303V8.23028H59.0087V10.9273H60.0424V15.0402H58.3408V17.8058H55.076V15.0402H53.3741V10.9273H54.4082V8.23028H52.1134V9.23356H50.5638V8.23028H48.269V9.23356H46.7181V8.23028H44.4242V10.9273H45.4579V15.0402H43.7567V17.8058H40.4912V15.0402H38.7896V10.9273H39.8241V8.23028H37.5294V9.23356H35.9789V8.23028H33.6842V9.23356H32.1341V8.23028H29.8394V10.9273H30.8738V17.8058L34.8644 22.0475V28.694H32.8808V35.1119H31.2392V96.9259C31.2392 100.806 33.1858 103.079 37.3639 104.079C43.815 105.623 52.8585 107.79 59.31 109.344C61.5637 109.886 62.9631 111.128 63.7156 113.25L64 114.055L64.2853 113.25C65.0374 111.128 66.4376 109.886 68.6909 109.344C75.1367 107.792 84.1822 105.624 90.6366 104.079C94.8147 103.079 96.7617 100.806 96.7617 96.9259V35.1119H95.1197V28.694H93.1361V22.0475L97.1267 17.8058V10.9273H98.1611V8.23028H95.8668ZM96.1562 87.9276H89.8476V91.5717H81.3657V87.9276H75.4429V91.5717H66.9614V87.9276H61.0395V91.5717H52.5576V87.9276H46.6352V91.5717H38.1537V87.9276H31.8447V35.717H96.1562V87.9276Z" fill="#707070"/>
</svg>
